<?xml version="1.0" encoding="UTF-8"?>
<svg id="Layer_1" xmlns="http://www.w3.org/2000/svg" xmlns:xlink="http://www.w3.org/1999/xlink" version="1.1" viewBox="0 0 579 601">
  <!-- Generator: Adobe Illustrator 29.6.0, SVG Export Plug-In . SVG Version: 2.1.1 Build 207)  -->
  <defs>
    <style>
      .st0 {
        fill: none;
      }

      .st1 {
        fill-rule: evenodd;
      }

      .st1, .st2 {
        fill: #fff;
      }

      .st3 {
        clip-path: url(#clippath);
      }
    </style>
    <clipPath id="clippath">
      <rect class="st0" x="31.4" y="39.3" width="521.7" height="521.7"/>
    </clipPath>
  </defs>
  <g class="st3">
    <g>
      <path d="M264.1,313.6c-1.3-.5-3.9-1.4-7.3-1.4-3.3,0-5.9.9-7.3,1.4-7.8,3-16.3,11.5-16.4,32.1,0,20.5,8.3,29.1,16.1,32.2,1.3.5,3.9,1.4,7.3,1.4,3.3,0,5.9-.8,7.3-1.3,7.8-3,16.3-11.5,16.4-32.1,0-20.5-8.3-29.1-16.1-32.2"/>
      <path d="M432.4,39.3H152.7c-67,0-121.3,54.3-121.3,121.3v279.1c0,67,54.3,121.3,121.3,121.3h279.2c67,0,121.3-54.3,121.3-121.3V160c0-66.7-54-120.7-120.7-120.7"/>
    </g>
  </g>
  <g>
    <rect class="st2" x="100.9" y="307.5" width="14.3" height="77.4"/>
    <rect class="st2" x="403.8" y="307.5" width="14.3" height="77.4"/>
    <path class="st2" d="M257.2,306.4c-23.1,0-38.9,17-38.9,39.7s15.7,39.7,38.9,39.7,39-17,39-39.7-15.8-39.7-39-39.7M264.3,378.3c-1.3.5-3.9,1.3-7.3,1.3-3.4,0-5.9-.9-7.3-1.4-7.8-3.1-16.2-11.7-16.1-32.2,0-20.6,8.6-29.1,16.4-32.1,1.3-.5,3.9-1.4,7.3-1.4,3.3,0,5.9.9,7.3,1.4,7.8,3.1,16.2,11.7,16.1,32.2,0,20.5-8.6,29.1-16.4,32.1"/>
    <path class="st2" d="M203.8,375.2c-6.9,6.6-16.5,10.5-27.8,10.5-23.5,0-39.4-13.1-39.4-39.6s16-39.6,39.4-39.6,20.4,3.7,27.3,10.1l-4.3,9.3c-4.5-8.1-12-13.2-21.1-13.2-15.4,0-25.9,14.4-25.9,33.5s12,33.5,25.9,33.5,18.5-3.8,24.2-8.9l1.8,4.4Z"/>
    <path class="st2" d="M505.5,375.2c-6.9,6.6-16.5,10.5-27.8,10.5-23.5,0-39.4-13.1-39.4-39.6s16-39.6,39.4-39.6,20.4,3.7,27.3,10.1l-4.3,9.2c-4.5-8.1-12-13.2-21.1-13.2-15.4,0-25.9,14.4-25.9,33.5s12,33.5,25.9,33.5,18.5-3.8,24.2-8.9l1.8,4.4Z"/>
    <polygon class="st1" points="378.5 307.5 378.5 384.9 369.1 384.9 319.4 325.7 319.1 325.7 319.1 384.9 313.1 384.9 313.1 307.5 323.9 307.5 372.2 366.7 372.5 366.7 372.5 307.5 378.5 307.5"/>
    <polygon class="st2" points="79 209.5 79 214.8 100.9 214.8 100.9 286.9 115.2 286.9 115.2 214.8 137.1 214.8 137.1 209.5 79 209.5"/>
    <polygon class="st2" points="209.4 245.5 170.8 245.5 170.8 209.5 156.5 209.5 156.5 286.9 170.8 286.9 170.8 250.8 209.4 250.8 209.4 286.9 223.6 286.9 223.6 209.5 209.4 209.5 209.4 245.5"/>
    <polygon class="st2" points="262.1 250.8 290.6 250.8 290.6 245.5 262.1 245.5 262.1 214.8 300.4 214.8 300.4 209.5 247.8 209.5 247.8 286.9 300.4 286.9 300.4 281.6 262.1 281.6 262.1 250.8"/>
  </g>
</svg>
